<?xml version="1.0" encoding="utf-8"?><!-- Uploaded to: SVG Repo, www.svgrepo.com, Generator: SVG Repo Mixer Tools -->
<svg width="800px" height="800px" viewBox="0 0 24 24" fill="none" xmlns="http://www.w3.org/2000/svg">
<path d="M13.7 20.75C13.6046 20.7479 13.5102 20.7311 13.42 20.7L8.76 18.85L3.93 20.7C3.81747 20.7422 3.69634 20.7564 3.57709 20.7413C3.45785 20.7262 3.34407 20.6823 3.2456 20.6134C3.14713 20.5445 3.06693 20.4526 3.01194 20.3457C2.95696 20.2389 2.92883 20.1202 2.93 20V5.99999C2.92994 5.84849 2.97577 5.70051 3.06145 5.57556C3.14713 5.45061 3.26865 5.35454 3.41 5.29999L8.52 3.29999C8.67529 3.24509 8.84471 3.24509 9 3.29999L13.77 5.15999L19.47 3.28999C19.5814 3.25128 19.7006 3.24015 19.8173 3.25757C19.934 3.27499 20.0447 3.32042 20.14 3.38999C20.237 3.45921 20.3158 3.55081 20.3697 3.65701C20.4237 3.76321 20.4512 3.88087 20.45 3.99999V18C20.4499 18.1568 20.4006 18.3096 20.3091 18.437C20.2177 18.5643 20.0886 18.6598 19.94 18.71L13.94 20.71C13.8631 20.7379 13.7818 20.7514 13.7 20.75ZM8.76 17.29C8.85656 17.2896 8.95208 17.31 9.04 17.35L13.72 19.2L19 17.42V4.99999L14 6.66999C13.8344 6.72491 13.6556 6.72491 13.49 6.66999L8.76 4.79999L4.41 6.46999V18.91L8.5 17.34C8.58301 17.308 8.67105 17.2911 8.76 17.29Z" fill="#000000"/>
</svg>